<svg width="162" height="162" viewBox="0 0 162 162" fill="none" xmlns="http://www.w3.org/2000/svg">
<g clip-path="url(#clip0_84_360)">
<path d="M81.0004 102.6C92.9297 102.6 102.6 92.9294 102.6 81C102.6 69.0707 92.9297 59.4 81.0004 59.4C69.071 59.4 59.4004 69.0707 59.4004 81C59.4004 92.9294 69.071 102.6 81.0004 102.6Z" fill="white"/>
<path d="M60.75 13.5L48.3975 27H27C19.575 27 13.5 33.075 13.5 40.5V121.5C13.5 128.925 19.575 135 27 135H135C142.425 135 148.5 128.925 148.5 121.5V40.5C148.5 33.075 142.425 27 135 27H113.602L101.25 13.5H60.75ZM81 114.75C62.37 114.75 47.25 99.63 47.25 81C47.25 62.37 62.37 47.25 81 47.25C99.63 47.25 114.75 62.37 114.75 81C114.75 99.63 99.63 114.75 81 114.75Z" fill="white"/>
</g>
<defs>
<clipPath id="clip0_84_360">
<rect width="162" height="162" fill="white"/>
</clipPath>
</defs>
</svg>
