<svg width="132" height="38" viewBox="0 0 132 38" fill="none" xmlns="http://www.w3.org/2000/svg">
<path d="M52.0119 9.47756C52.5405 9.47756 52.9741 9.5833 53.3124 9.79478C53.672 9.98511 53.968 10.2495 54.2007 10.5878C54.4333 10.905 54.6236 11.2751 54.7716 11.6981C54.9197 12.121 55.0466 12.5546 55.1523 12.9987C55.9982 16.4246 56.6961 19.2479 57.2459 21.4684C57.7958 23.6889 58.2293 25.4865 58.5465 26.8611C58.8637 28.2145 59.0858 29.2191 59.2127 29.8746C59.3396 30.5302 59.403 30.9849 59.403 31.2387C59.403 31.5347 59.329 31.7357 59.181 31.8414C59.0541 31.9471 58.8426 32 58.5465 32H56.9287C56.0194 32 55.2898 31.8943 54.7399 31.6828C54.2112 31.4502 53.7988 31.1224 53.5028 30.6994C53.2279 30.2765 53.0269 29.7689 52.9001 29.1768C52.7732 28.5635 52.6674 27.8762 52.5828 27.1149H47.0633L46.0164 31.4925C45.9107 31.8308 45.6675 32 45.2868 32H43.6056C43.2672 32 42.9183 31.9683 42.5588 31.9048C42.1993 31.8202 41.8715 31.6934 41.5754 31.5242C41.3005 31.355 41.0679 31.1435 40.8775 30.8897C40.6872 30.6148 40.592 30.287 40.592 29.9064C40.592 29.4411 40.7401 28.6798 41.0361 27.6224C41.3322 26.565 41.7023 25.3702 42.1464 24.0378C42.6116 22.6844 43.1192 21.2781 43.669 19.8189C44.24 18.3385 44.7899 16.9427 45.3186 15.6316C45.8473 14.3204 46.3231 13.1679 46.746 12.1739C47.1901 11.18 47.5285 10.4821 47.7611 10.0803C47.9303 9.78421 48.0784 9.61502 48.2052 9.57273C48.3533 9.50928 48.6176 9.47756 48.9983 9.47756H52.0119ZM48.2052 22.5152H51.8532L50.5209 14.1407L48.2052 22.5152ZM66.9617 32.3172C66.1369 32.3172 65.3439 32.1692 64.5826 31.8731C63.8424 31.577 63.1868 31.1118 62.6158 30.4774C62.066 29.8429 61.6219 29.0393 61.2835 28.0665C60.9663 27.0937 60.8077 25.92 60.8077 24.5454C60.8077 23.9321 60.85 23.2554 60.9346 22.5152C61.0192 21.7539 61.1672 20.9926 61.3787 20.2312C61.5902 19.4699 61.8862 18.7297 62.2669 18.0107C62.6476 17.2917 63.1234 16.6573 63.6944 16.1074C64.2865 15.5364 64.9844 15.0817 65.788 14.7434C66.6128 14.405 67.575 14.2358 68.6747 14.2358C69.7321 14.2358 70.578 14.4262 71.2124 14.8068C71.868 15.1663 72.2804 15.8008 72.4496 16.7101C72.4919 15.8854 72.5342 15.1663 72.5765 14.553C72.6188 13.9398 72.6505 13.3688 72.6716 12.8401C72.7139 12.3114 72.7562 11.7827 72.7985 11.254C72.8408 10.7253 72.8831 10.1226 72.9254 9.44584C72.9466 8.98059 72.9994 8.70567 73.084 8.62108C73.1263 8.57878 73.1792 8.55763 73.2426 8.55763C73.3061 8.53649 73.4224 8.52591 73.5916 8.52591H74.8287C75.4631 8.52591 75.9918 8.59993 76.4148 8.74796C76.8378 8.896 77.1761 9.0969 77.4299 9.35068C77.6837 9.60445 77.8634 9.90052 77.9692 10.2389C78.0749 10.5561 78.1278 10.8945 78.1278 11.254C78.1278 11.254 78.1066 11.5183 78.0643 12.047C78.022 12.5757 77.9692 13.2842 77.9057 14.1724C77.8423 15.0394 77.7683 16.0334 77.6837 17.1542C77.5991 18.2751 77.5145 19.4382 77.4299 20.6436C77.3453 21.8279 77.2607 23.0122 77.1761 24.1965C77.0915 25.3596 77.0069 26.4381 76.9223 27.4321C76.8378 28.4049 76.7637 29.2508 76.7003 29.9698C76.658 30.6677 76.6263 31.1329 76.6051 31.3656C76.5628 31.6193 76.51 31.7885 76.4465 31.8731C76.3831 31.9577 76.2033 32 75.9072 32H74.7653C74.3212 32 73.8982 31.9683 73.4964 31.9048C73.1157 31.8202 72.7774 31.6934 72.4813 31.5242C72.2064 31.3338 71.9843 31.0906 71.8151 30.7946C71.6671 30.4774 71.5931 30.0755 71.5931 29.5891C71.2124 30.3928 70.6309 31.0483 69.8484 31.5559C69.0871 32.0634 68.1248 32.3172 66.9617 32.3172ZM69.7215 18.4548C68.643 18.4548 67.8394 18.9306 67.3107 19.8823C66.8031 20.8128 66.5493 22.0711 66.5493 23.6572C66.5493 24.207 66.5811 24.7463 66.6445 25.275C66.7291 25.8037 66.8665 26.2795 67.0569 26.7025C67.2472 27.1254 67.501 27.4638 67.8182 27.7176C68.1566 27.9713 68.5795 28.0982 69.0871 28.0982C69.9964 28.0982 70.7578 27.6541 71.371 26.7659C71.9843 25.8777 72.291 24.4819 72.291 22.5786C72.291 22.0499 72.2592 21.5424 72.1958 21.056C72.1324 20.5485 72.0055 20.1043 71.8151 19.7237C71.6248 19.343 71.3605 19.0364 71.0221 18.8038C70.6837 18.5711 70.2502 18.4548 69.7215 18.4548ZM87.5618 32.3172C86.1026 32.3172 84.8866 32.1163 83.9138 31.7145C82.9621 31.2915 82.2008 30.7206 81.6298 30.0015C81.0588 29.2825 80.657 28.4472 80.4244 27.4955C80.1917 26.5227 80.0754 25.4865 80.0754 24.3868C80.0754 23.1179 80.2235 21.8808 80.5195 20.6753C80.8368 19.4488 81.3655 18.3597 82.1056 17.408C82.8458 16.4563 83.8186 15.695 85.024 15.124C86.2506 14.5319 87.7732 14.2358 89.592 14.2358C92.2566 14.2358 94.1599 14.8914 95.3019 16.2026C96.465 17.4926 97.0466 19.3113 97.0466 21.6587C97.0466 22.3143 96.9937 23.0439 96.888 23.8475C96.8034 24.63 96.6236 25.4125 96.3487 26.1949C96.0949 26.9774 95.7354 27.7387 95.2701 28.4789C94.826 29.2191 94.2551 29.8746 93.5572 30.4456C92.8593 31.0166 92.0134 31.4713 91.0194 31.8097C90.0466 32.148 88.8941 32.3172 87.5618 32.3172ZM89.0527 18.4548C88.2491 18.4548 87.6041 18.6663 87.1177 19.0893C86.6524 19.4911 86.2929 19.988 86.0391 20.5802C85.8065 21.1512 85.6479 21.7645 85.5633 22.42C85.4999 23.0545 85.4681 23.5937 85.4681 24.0378C85.4681 25.4336 85.6902 26.4593 86.1343 27.1149C86.5784 27.7704 87.2128 28.0982 88.0376 28.0982C88.7778 28.0982 89.3805 27.8656 89.8457 27.4003C90.3321 26.9351 90.7022 26.3747 90.956 25.7191C91.2309 25.0635 91.4107 24.3762 91.4953 23.6572C91.601 22.9382 91.6539 22.3354 91.6539 21.849C91.6539 20.7917 91.453 19.9669 91.0512 19.3747C90.6705 18.7615 90.0043 18.4548 89.0527 18.4548ZM110.391 14.2358C112.378 14.2358 113.869 14.8491 114.863 16.0757C115.878 17.3023 116.386 19.2373 116.386 21.8808C116.386 23.5303 116.196 25.0001 115.815 26.2901C115.434 27.5801 114.906 28.6798 114.229 29.5891C113.552 30.4774 112.759 31.1541 111.85 31.6193C110.94 32.0846 109.957 32.3172 108.9 32.3172C107.779 32.3172 106.901 32.074 106.267 31.5876C105.632 31.1012 105.135 30.4139 104.776 29.5257C104.712 30.287 104.659 30.8686 104.617 31.2704C104.575 31.6722 104.543 31.9894 104.522 32.2221C104.501 32.4758 104.48 32.6979 104.459 32.8882C104.459 33.0785 104.437 33.3323 104.395 33.6495C104.374 33.9667 104.342 34.4003 104.3 34.9501C104.258 35.5 104.194 36.2613 104.11 37.2341C104.088 37.4879 104.036 37.657 103.951 37.7416C103.866 37.8262 103.687 37.8685 103.412 37.8685H102.27C101.614 37.8685 101.075 37.7945 100.652 37.6465C100.25 37.5196 99.9223 37.3293 99.6686 37.0755C99.4359 36.8217 99.2668 36.5045 99.161 36.1238C99.0764 35.7643 99.0341 35.3414 99.0341 34.855C99.0341 34.6435 99.0658 34.0725 99.1293 33.142C99.1927 32.2115 99.2668 31.1012 99.3513 29.8112C99.4571 28.5 99.5628 27.0937 99.6686 25.5922C99.7954 24.0907 99.9118 22.6632 100.018 21.3098C100.123 19.9352 100.208 18.7192 100.271 17.6618C100.356 16.6044 100.419 15.8748 100.462 15.473C100.483 15.0077 100.536 14.7328 100.62 14.6482C100.684 14.5848 100.853 14.553 101.128 14.553H102.365C103.507 14.553 104.332 14.7962 104.839 15.2826C105.368 15.7479 105.632 16.3083 105.632 16.9639C106.119 15.9911 106.743 15.2932 107.504 14.8703C108.286 14.4473 109.249 14.2358 110.391 14.2358ZM108.075 18.4548C106.996 18.4548 106.203 18.9201 105.696 19.8506C105.188 20.7811 104.934 22.0499 104.934 23.6572C104.934 24.207 104.966 24.7463 105.03 25.275C105.114 25.8037 105.252 26.2795 105.442 26.7025C105.632 27.1254 105.886 27.4638 106.203 27.7176C106.542 27.9713 106.965 28.0982 107.472 28.0982C108.381 28.0982 109.143 27.6541 109.756 26.7659C110.369 25.8777 110.676 24.4819 110.676 22.5786C110.676 22.0499 110.634 21.5424 110.549 21.056C110.486 20.5485 110.359 20.1043 110.168 19.7237C109.978 19.343 109.714 19.0364 109.375 18.8038C109.037 18.5711 108.604 18.4548 108.075 18.4548ZM125.658 18.8355C125.595 19.6391 125.521 20.4321 125.436 21.2146C125.373 21.9971 125.309 22.7373 125.246 23.4351C125.183 24.133 125.13 24.7569 125.087 25.3067C125.066 25.8566 125.056 26.2795 125.056 26.5756C125.056 27.1254 125.119 27.4955 125.246 27.6858C125.373 27.855 125.584 27.9396 125.88 27.9396C126.113 27.9396 126.314 27.8973 126.483 27.8127C126.652 27.7281 126.811 27.633 126.959 27.5272C127.107 27.4215 127.234 27.3263 127.34 27.2417C127.466 27.1571 127.604 27.1149 127.752 27.1149C127.9 27.1149 128.037 27.1994 128.164 27.3686C128.291 27.5378 128.355 27.929 128.355 28.5423C128.355 29.7055 128.037 30.6254 127.403 31.3021C126.769 31.9789 125.679 32.3172 124.136 32.3172C122.613 32.3172 121.482 31.9683 120.741 31.2704C120.022 30.5514 119.663 29.4623 119.663 28.0031C119.663 27.6858 119.673 27.3158 119.695 26.8928C119.737 26.4487 119.79 25.8777 119.853 25.1798C119.917 24.4819 119.991 23.6255 120.075 22.6104C120.181 21.5953 120.287 20.337 120.393 18.8355H118.711C118.542 18.8355 118.436 18.8038 118.394 18.7403C118.373 18.6557 118.362 18.5394 118.362 18.3914L118.457 16.7736C118.479 16.4986 118.51 16.2343 118.553 15.9805C118.616 15.7056 118.722 15.4624 118.87 15.2509C119.039 15.0394 119.272 14.8703 119.568 14.7434C119.864 14.6165 120.255 14.553 120.741 14.553C120.889 14.1724 121.059 13.7177 121.249 13.189C121.439 12.6603 121.63 12.1528 121.82 11.6664C122.01 11.1588 122.19 10.7359 122.359 10.3975C122.55 10.0591 122.719 9.88995 122.867 9.88995H123.787C124.675 9.88995 125.288 10.1649 125.627 10.7147C125.965 11.2646 126.134 11.9201 126.134 12.6815C126.134 13.1044 126.102 13.7283 126.039 14.553H129.37C129.708 14.553 129.877 14.7011 129.877 14.9971L129.75 16.7101C129.708 17.3446 129.528 17.8627 129.211 18.2645C128.915 18.6451 128.291 18.8355 127.34 18.8355H125.658Z" fill="#1867FF"/>
<path d="M21.2549 16.7135C18.6873 13.6044 14.3011 14.7703 12.8746 16.7135C12.4856 17.2435 11.2699 18.956 10.735 19.8934C9.72689 21.6599 5.20758 25.2346 3.60281 27.6663C1.17787 31.3407 5.20754 34.497 7.52549 35.6158C9.37985 36.3225 13.0529 34.8503 14.6576 34.0259C17.0826 33.3193 19.2341 33.7315 20.0068 34.0259C24.9993 36.8524 28.2682 35.2036 29.2786 34.0259C33.1299 30.2101 31.4183 26.6064 28.7437 25.1931C25.7482 24.2038 23.038 19.0101 21.2549 16.7135Z" fill="#1867FF"/>
<ellipse cx="3.92269" cy="16.0307" rx="3.92269" ry="5.82969" fill="#1867FF"/>
<ellipse cx="11.7684" cy="8.25779" rx="3.92269" ry="5.82969" fill="#1867FF"/>
<ellipse cx="23.536" cy="8.25779" rx="3.92269" ry="5.82969" fill="#1867FF"/>
<ellipse cx="32.0946" cy="17.0906" rx="3.92269" ry="5.82969" fill="#1867FF"/>
</svg>